<?xml version="1.0" encoding="UTF-8" standalone="no" ?>
<!DOCTYPE svg PUBLIC "-//W3C//DTD SVG 1.1//EN" "http://www.w3.org/Graphics/SVG/1.1/DTD/svg11.dtd">
<svg xmlns="http://www.w3.org/2000/svg" xmlns:xlink="http://www.w3.org/1999/xlink" version="1.1" width="500" height="500" viewBox="0 0 500 500" xml:space="preserve">
<desc>Created with Fabric.js 3.6.3</desc>
<defs>
</defs>
<rect x="0" y="0" width="100%" height="100%" fill="#ffffff"></rect>
<g transform="matrix(1.891926138150024 0 0 1.891926138150024 250 250)"  >
<path style="stroke: none; stroke-width: 0; stroke-dasharray: none; stroke-linecap: butt; stroke-dashoffset: 0; stroke-linejoin: miter; stroke-miterlimit: 4; fill: rgb(185,18,27); fill-rule: nonzero; opacity: 1;"  transform=" translate(-49.999000048676834, -50)" d="M 72.244 60.139 c -0.546 0 -1.088 0.028 -1.625 0.078 c -1.799 -1.314 -4.083 -2.308 -6.649 -2.885 l -11.801 -2.668 l -0.699 -3.011 c 3.063 -1.62 5.664 -4.098 7.426 -7.215 c 0.747 -1.325 1.243 -2.712 1.541 -4.146 c 3.318 -0.173 5.964 -2.923 5.964 -6.28 c 0 -1.539 -0.557 -2.988 -1.555 -4.124 c 2.596 -5.757 2.342 -11.651 -0.752 -16.706 C 60.001 6.494 51.478 2 42.885 2 c -8.593 0 -17.116 4.494 -21.209 11.182 c -3.093 5.055 -3.348 10.949 -0.752 16.706 c -0.998 1.136 -1.555 2.585 -1.555 4.124 c 0 3.357 2.647 6.108 5.965 6.28 c 0.307 1.495 0.82 2.87 1.54 4.147 c 1.761 3.117 4.363 5.594 7.425 7.214 l -0.699 3.011 L 21.8 57.333 c -7.024 1.586 -11.217 5.882 -11.217 11.492 v 17.927 c 0 0.828 0.672 1.5 1.5 1.5 h 42.474 c 3.355 5.407 9.122 9.145 15.836 9.736 c 0.003 0 0.006 0.001 0.009 0.001 C 70.49 97.997 70.578 98 70.664 98 c 0.771 0 1.499 -0.282 2.065 -0.803 c 0.647 -0.586 1.004 -1.393 1.004 -2.271 v -3.758 c 0 -1.458 -0.996 -2.692 -2.426 -3.003 l -3.135 -0.671 c -1.03 -0.216 -2.048 0.08 -2.792 0.814 l -0.305 0.3 c -1.683 -1.063 -3.098 -2.476 -4.161 -4.157 l 0.296 -0.303 c 0.743 -0.753 1.039 -1.776 0.814 -2.798 l -0.672 -3.132 c -0.312 -1.423 -1.547 -2.417 -3.003 -2.417 h -3.762 c -0.878 0 -1.684 0.356 -2.263 0.994 c -0.589 0.638 -0.873 1.468 -0.801 2.344 c 0.19 2.151 0.706 4.203 1.495 6.112 h -3.749 l -2.554 -16.984 c 0.451 -0.41 0.829 -0.899 1.115 -1.443 l 0.597 0.418 c 0.254 0.177 0.554 0.271 0.859 0.271 c 0.092 0 0.185 -0.009 0.277 -0.026 c 0.396 -0.075 0.746 -0.306 0.97 -0.641 l 5.497 -8.233 l 7.279 1.646 c 1.059 0.238 2.054 0.555 2.966 0.942 c -1.522 0.564 -2.965 1.345 -4.296 2.338 c -2.883 2.15 -5.058 5.214 -6.127 8.628 c -0.247 0.791 0.193 1.632 0.984 1.879 c 0.791 0.247 1.632 -0.193 1.879 -0.984 c 1.857 -5.935 7.293 -9.923 13.527 -9.923 c 7.815 0 14.172 6.351 14.172 14.158 c 0 6.222 -3.993 11.648 -9.936 13.503 c -0.791 0.247 -1.232 1.088 -0.985 1.879 c 0.2 0.642 0.792 1.054 1.432 1.054 c 0.148 0 0.298 -0.022 0.447 -0.068 c 3.417 -1.066 6.485 -3.239 8.638 -6.118 c 2.227 -2.978 3.405 -6.522 3.405 -10.249 C 89.416 67.836 81.713 60.139 72.244 60.139 z M 54.553 78.805 c 0.005 -0.001 0.016 -0.002 0.034 -0.002 h 3.762 c 0.031 0 0.061 0.007 0.071 0.053 l 0.672 3.133 c 0.003 0.016 0.004 0.025 0.004 0.026 c -0.002 0.004 -0.009 0.014 -0.027 0.032 l -1.096 1.121 c -0.455 0.466 -0.558 1.172 -0.255 1.748 c 1.555 2.954 3.941 5.336 6.899 6.89 c 0.577 0.304 1.285 0.199 1.75 -0.259 l 1.118 -1.1 c 0.014 -0.013 0.023 -0.019 0.023 -0.019 c 0 0 0.015 -0.003 0.042 0.003 l 3.125 0.669 c 0.042 0.009 0.058 0.029 0.058 0.07 v 3.758 c 0 0.017 -0.001 0.027 -0.001 0.03 c -0.003 0.004 -0.011 0.012 -0.025 0.025 c -0.014 0.012 -0.023 0.018 -0.022 0.018 C 70.683 95 70.672 95.001 70.651 95 c -8.594 -0.76 -15.382 -7.54 -16.139 -16.114 c -0.002 -0.02 0 -0.032 -0.001 -0.032 c 0 0 0.004 -0.008 0.027 -0.033 C 54.546 78.812 54.552 78.806 54.553 78.805 z M 60.783 37.231 c 0.056 -2.111 -0.227 -4.294 -0.719 -6.507 h 0.042 c 0.724 0 1.416 0.238 2.001 0.688 c 0.822 0.633 1.294 1.581 1.294 2.601 C 63.4 35.594 62.276 36.918 60.783 37.231 z M 22.37 34.013 c 0 -1.02 0.471 -1.968 1.294 -2.601 c 0.585 -0.45 1.277 -0.688 2.001 -0.688 h 0.048 c -0.525 2.387 -0.764 4.543 -0.715 6.509 C 23.499 36.925 22.37 35.598 22.37 34.013 z M 27.623 27.724 h -1.958 c -0.773 0 -1.524 0.145 -2.231 0.416 c -1.967 -4.702 -1.699 -9.305 0.802 -13.392 C 27.747 9.009 35.416 5 42.885 5 s 15.138 4.009 18.65 9.748 c 2.501 4.087 2.769 8.69 0.802 13.392 c -0.707 -0.271 -1.458 -0.416 -2.231 -0.416 h -0.821 c -0.608 -2.072 -1.345 -4.153 -2.11 -6.208 c 0 -0.001 -0.001 -0.001 -0.001 -0.002 c -0.585 -1.566 -1.919 -2.659 -3.567 -2.923 c -1.648 -0.265 -3.256 0.354 -4.304 1.659 c -6.26 7.81 -21.098 7.491 -21.593 7.477 C 27.681 27.725 27.652 27.724 27.623 27.724 z M 29.488 42.964 c -1.727 -3.059 -1.955 -6.966 -0.701 -12.228 c 0.401 -0.008 0.898 -0.025 1.516 -0.056 c 1.51 -0.076 3.853 -0.271 6.446 -0.77 c 6.792 -1.308 11.804 -3.927 14.894 -7.782 c 0.373 -0.465 0.901 -0.668 1.488 -0.574 c 0.594 0.095 1.02 0.444 1.232 1.009 c 2.699 7.258 5.07 14.813 1.92 20.402 c -2.728 4.828 -7.862 7.827 -13.398 7.827 C 37.349 50.791 32.215 47.791 29.488 42.964 z M 42.885 53.791 c 1.993 0 3.942 -0.327 5.783 -0.94 l 0.562 2.421 l -6.345 4.436 l -6.345 -4.436 l 0.562 -2.421 C 38.943 53.463 40.892 53.791 42.885 53.791 z M 34.533 57.53 l 5.734 4.008 l -3.388 2.368 l -4.01 -6 L 34.533 57.53 z M 13.584 68.825 c 0 -6.088 6.795 -8.096 8.878 -8.566 l 7.273 -1.644 l 5.502 8.232 c 0.224 0.335 0.574 0.566 0.97 0.641 c 0.092 0.017 0.185 0.026 0.277 0.026 c 0.305 0 0.606 -0.093 0.859 -0.271 l 0.597 -0.418 c 0.286 0.544 0.664 1.032 1.115 1.443 l -2.554 16.984 h -11.37 v -4.777 c 0 -0.828 -0.672 -1.5 -1.5 -1.5 c -0.828 0 -1.5 0.672 -1.5 1.5 v 4.777 h -8.548 V 68.825 z M 46.235 85.252 h -6.701 l 2.356 -15.665 c 0.226 0.03 0.457 0.047 0.691 0.047 h 0.607 c 0.234 0 0.465 -0.017 0.691 -0.047 L 46.235 85.252 z M 43.188 66.634 h -0.607 c -1 0 -1.848 -0.657 -2.136 -1.561 l 2.439 -1.705 l 2.439 1.705 C 45.036 65.977 44.188 66.634 43.188 66.634 z M 48.89 63.906 l -3.387 -2.368 l 5.734 -4.008 l 1.66 0.375 L 48.89 63.906 z M 36.813 36.321 c -0.828 0 -1.5 -0.672 -1.5 -1.5 v -2.503 c 0 -0.828 0.672 -1.5 1.5 -1.5 c 0.828 0 1.5 0.672 1.5 1.5 v 2.503 C 38.313 35.649 37.641 36.321 36.813 36.321 z M 47.457 34.821 v -2.503 c 0 -0.828 0.672 -1.5 1.5 -1.5 c 0.828 0 1.5 0.672 1.5 1.5 v 2.503 c 0 0.828 -0.672 1.5 -1.5 1.5 C 48.128 36.321 47.457 35.649 47.457 34.821 z M 40.565 40.104 c -0.399 -0.482 -0.574 -1.082 -0.491 -1.691 l 0.703 -5.09 c 0.113 -0.82 0.868 -1.394 1.691 -1.281 c 0.82 0.113 1.394 0.87 1.281 1.691 l -0.572 4.141 h 1.039 c 0.828 0 1.5 0.672 1.5 1.5 c 0 0.828 -0.672 1.5 -1.5 1.5 h -1.99 c -0.628 0 -1.204 -0.259 -1.624 -0.729 C 40.589 40.132 40.576 40.118 40.565 40.104 z M 42.885 47.795 c -2.785 0 -5.336 -1.561 -6.346 -3.883 c -0.331 -0.76 0.018 -1.643 0.777 -1.974 c 0.759 -0.331 1.643 0.018 1.974 0.777 c 0.541 1.244 1.986 2.08 3.595 2.08 c 1.609 0 3.054 -0.836 3.595 -2.08 c 0.331 -0.76 1.214 -1.107 1.974 -0.777 c 0.76 0.331 1.108 1.214 0.777 1.974 C 48.221 46.235 45.671 47.795 42.885 47.795 z M 73.744 68.671 v 6.995 l 4.585 0.056 c 0.828 0.01 1.492 0.69 1.481 1.518 c -0.01 0.822 -0.68 1.482 -1.499 1.482 c -0.006 0 -0.012 0 -0.019 0 l -6.067 -0.075 c -0.821 -0.01 -1.482 -0.679 -1.482 -1.5 v -8.477 c 0 -0.828 0.672 -1.5 1.5 -1.5 C 73.073 67.171 73.744 67.843 73.744 68.671 z" stroke-linecap="round" />
</g>
</svg>